inDegrees=no
num_controls=7
num_derivatives=13
num_iterations=121
num_multipliers=7
num_parameters=0
num_slacks=7
num_states=26
objective=0.476644
objective_accelerations=0.044340
objective_balance=0.003604
objective_effort=0.040553
objective_height=0.382488
objective_ligament=0.005661
solver_duration=1675.033384
status=Solve_Succeeded
success=true
DataType=double
version=3
OpenSimVersion=4.5
endheader
time	/jointset/ground_pelvis/pelvis_tilt/value	/jointset/ground_pelvis/pelvis_tx/value	/jointset/ground_pelvis/pelvis_ty/value	/jointset/hip_l/hip_flexion_l/value	/jointset/hip_l/hip_adduction_l/value	/jointset/hip_l/hip_rotation_l/value	/jointset/back/lumbar_extension/value	/jointset/patellofemoral_l/patellar_flexion_l/value	/jointset/knee_l/knee_flexion_l/value	/jointset/knee_l/knee_adduction_l/value	/jointset/knee_l/knee_rotation_l/value	/jointset/ankle_l/ankle_angle_l/value	/jointset/subtalar_l/subtalar_angle_l/value	/jointset/ground_pelvis/pelvis_tilt/speed	/jointset/ground_pelvis/pelvis_tx/speed	/jointset/ground_pelvis/pelvis_ty/speed	/jointset/hip_l/hip_flexion_l/speed	/jointset/hip_l/hip_adduction_l/speed	/jointset/hip_l/hip_rotation_l/speed	/jointset/back/lumbar_extension/speed	/jointset/patellofemoral_l/patellar_flexion_l/speed	/jointset/knee_l/knee_flexion_l/speed	/jointset/knee_l/knee_adduction_l/speed	/jointset/knee_l/knee_rotation_l/speed	/jointset/ankle_l/ankle_angle_l/speed	/jointset/subtalar_l/subtalar_angle_l/speed	/forceset/tau_hip_flexion_l	/forceset/tau_hip_adduction_l	/forceset/tau_hip_rotation_l	/forceset/tau_knee_flexion_l	/forceset/tau_ankle_angle_l	/forceset/tau_subtalar_angle_l	/forceset/tau_lumbar_extension	lambda_cid13_p0	lambda_cid13_p1	lambda_cid13_p2	lambda_cid13_p3	lambda_cid13_p4	lambda_cid13_p5	lambda_cid14_p0	/jointset/ground_pelvis/pelvis_tilt/accel	/jointset/ground_pelvis/pelvis_tx/accel	/jointset/ground_pelvis/pelvis_ty/accel	/jointset/hip_l/hip_flexion_l/accel	/jointset/hip_l/hip_adduction_l/accel	/jointset/hip_l/hip_rotation_l/accel	/jointset/back/lumbar_extension/accel	/jointset/patellofemoral_l/patellar_flexion_l/accel	/jointset/knee_l/knee_flexion_l/accel	/jointset/knee_l/knee_adduction_l/accel	/jointset/knee_l/knee_rotation_l/accel	/jointset/ankle_l/ankle_angle_l/accel	/jointset/subtalar_l/subtalar_angle_l/accel	gamma_cid13_p0	gamma_cid13_p1	gamma_cid13_p2	gamma_cid13_p3	gamma_cid13_p4	gamma_cid13_p5	gamma_cid14_p0
0	-0.03682185782749262	0.05667703934106318	0.9203416051043064	0.3085816938045678	-0.295639738772886	-0.30159467568997	-0.3879492264334186	0.2499269421184921	0.2499269421184919	-0.174532831927222	-0.1745203108935632	-0.0008036623358878681	0.0004382032873095086	0	0	0	0	0	0	0	0	0	0	0	0	0	0.06504676990564325	-0.04558719973045365	-0.0190948693981813	-0.2373055309512684	0.1849455006501163	-0.01216804471080689	0.008957391442889897	15.98040700694281	-0.1299647574090229	2.555076958408013	8.801436190080661	-624.5983851698121	-74.51588599859268	-23.19652170477211	-0.6450378301888157	-1.925061795934712	-0.8612391910430628	8.640358661791778	-0.7785436303727912	3.341713413466319	-7.269352457054832	9.186881069157618	9.186881069159764	1.329011972474814	0.0341160307938237	1.750027848813832	-0.2427137343400554	-4.728214768362118e-09	1.889102620865337e-07	-5.781224767501421e-08	4.443615565264815e-08	-8.597785601632489e-08	7.461931168112347e-08	2.96364544769469e-08
0.01	-0.03685402507153749	0.05658147481218993	0.9202987570468896	0.3090093334079836	-0.2956804184891	-0.3014255316115357	-0.3883133316552652	0.2503811642546053	0.2503811642545941	-0.1744719599502889	-0.1745158656492186	-0.0007181368957984448	0.0004235450976064302	-0.006745446395509103	-0.01906143016807662	-0.008612831530388831	0.08576910270918912	-0.008255240265568746	0.03377903299804984	-0.07253958476492163	0.09083039334692158	0.09083039334693098	0.01191232350460179	0.0007937876784440374	0.01708008178340348	-0.003063683520531422	0.06899968145214981	-0.05844737844010451	-0.01987954915125592	-0.244888478530557	0.1924398635881199	-0.004127030565216772	0.006643663490855944	18.70753137670672	-3.92584419970798	2.961685292315554	6.290610981392217	-624.6466120426219	-82.9889978291254	-23.20156186400982	-0.7360960229839317	-1.88895339849812	-0.8678053366468107	8.581362694439363	-0.8669275127163786	3.388548841355291	-7.204042545652387	9.029007459841583	9.029007459841788	1.083057554618581	0.08770466496201808	1.683249842329861	-0.3580251322999304	-4.7280179239252e-08	1.266046944115968e-07	1.608289644777161e-07	3.646668685705113e-08	-7.838234028349181e-08	-6.82300215553136e-08	-1.011484107978925e-08
0.02	-0.03696300637527616	0.05629684202738585	0.9201684806336474	0.3103018993622212	-0.2958072332655774	-0.3009200870834226	-0.3893943889366583	0.2517432681225965	0.2517432681225943	-0.1742998217352569	-0.1745063436224646	-0.0004625603380291551	0.0003742841784199594	-0.01536281194108882	-0.0378136511861639	-0.017485671165061	0.1729852701766734	-0.01722701205383184	0.06726008993132807	-0.1433904119075248	0.1815763463891334	0.1815763463891403	0.02225324761581969	0.001015356500585388	0.03401022353587258	-0.006920545896672971	0.0729525929980654	-0.0713075571497883	-0.02066422890393022	-0.2524714261102508	0.1999342265260002	0.003913983580292003	0.004329935538461686	21.50757581273597	-7.733253623896871	3.368717770191429	3.66339038265014	-623.6074223367463	-91.37118562610073	-23.21679076681303	-1.019421660203099	-1.863219965936657	-0.9132408118997243	8.929771613450706	-0.9218499349116909	3.282118200511966	-6.931600932591248	9.169993008215675	9.169993008215434	1.014732093797985	-0.08032774046674943	1.720039842627186	-0.4013495054620314	-8.983214371014188e-08	6.429912673665989e-08	3.794701766304464e-07	2.849721806145411e-08	-7.078682455065872e-08	-2.110793547917507e-07	-4.98661366365254e-08
0.03	-0.03716133710177889	0.05582709578319332	0.9199492391678897	0.3124630579962773	-0.2960240188064598	-0.3000845527543366	-0.3911740275135872	0.2540063812942798	0.2540063812942768	-0.1740274846695662	-0.1744971650911376	-3.864165531451863e-05	0.0002858884451975112	-0.02398914907246247	-0.05599947459052898	-0.02629843471303965	0.2584184556202462	-0.02591627100966097	0.09958069671434303	-0.2121188162174673	0.2704473755529753	0.2704473755529766	0.03241793922941662	0.0008537967436121854	0.05074254411219326	-0.01054643820337448	0.06189182776450874	-0.06265642238280957	-0.01909909837991403	-0.2408822478040943	0.18713851358377	0.003756184005518488	0.01353575855706789	17.28332271683189	-7.060680750726273	3.416373720286992	5.203983495640213	-626.2116596257002	-88.67359176960808	-23.24202535413634	-0.7371261469369437	-1.775839400686334	-0.8556801619001676	8.225876045634958	-0.8104523931235837	3.167064544441654	-6.780687091274329	8.655831145164283	8.655831145163758	1.047953045035436	0.02101119188568951	1.645180892610977	-0.3114388734271869	-9.822387388603804e-08	8.633190826343763e-08	3.371182116640846e-07	6.325582014763004e-08	-2.024593588066816e-07	-1.833063280790357e-07	-3.80438213686997e-08
0.04	-0.03743650848105217	0.05517957613035758	0.9196437928595242	0.3154537052919238	-0.2963212946403387	-0.298933805831968	-0.393628395515827	0.257140239412542	0.2571402394125442	-0.1736473776177579	-0.1744885859003397	0.0005516707786584662	0.0001675878328773393	-0.0307309424971781	-0.07336833291480516	-0.03472663968665402	0.3388830024967991	-0.03332507065370507	0.1303026085871765	-0.2783362969705712	0.3557253357046665	0.3557253357046674	0.04380724483879813	0.000895488394566514	0.0672889737875846	-0.01290152171619952	0.05083106253087986	-0.05400528761584639	-0.0175339678558924	-0.229293069497939	0.1743428006415447	0.003598384430730558	0.02274158157560098	13.1277551764821	-6.39704260842576	3.461923377667562	6.624519636618013	-627.8029898066947	-85.88895058739512	-23.2762235054232	-0.6425129188717138	-1.699826949918704	-0.8363290970268593	7.936043900046568	-0.6657580725547063	2.962379218475629	-6.429416221223679	8.451379205785566	8.451379205786324	1.259654892954867	-0.03967745888129692	1.682861662441537	-0.1471877466866847	-1.059112693342024e-07	1.101036248253023e-07	2.893849440767105e-07	9.889541338600749e-08	-3.370033992480417e-07	-1.520153145632454e-07	-2.515813268181086e-08
0.05	-0.03777490653650181	0.05436232788187407	0.9192549771608797	0.319231529587396	-0.2966882776366326	-0.297482310679074	-0.3967285995721589	0.2611118814480195	0.2611118814480093	-0.17315074739994	-0.1744788981095769	0.001306464791641656	2.995392830357886e-05	-0.03712066005906536	-0.08995602385665769	-0.0430665856641188	0.4165189102701939	-0.04006731820785254	0.1598972942920295	-0.3409471813708114	0.4382546087044004	0.4382546087044192	0.05534237744158788	0.001066148433273917	0.08361702464470354	-0.01464038933274013	0.04396285902751051	-0.05211665388048768	-0.01666829166922865	-0.2243879999081072	0.1687037438457833	0.005770506762915874	0.02898149455789586	11.4064795884839	-7.067382953742467	3.601199851801506	6.607194351622718	-628.4713585701401	-86.35134169878238	-23.3180352965658	-0.6630025040882314	-1.619426159923606	-0.8374086792632128	7.652911861002482	-0.6778765788808148	2.943104898317412	-6.063324610699874	8.101436871893869	8.101436871896134	1.074025285833511	0.0490960554890961	1.599852718408561	-0.1895554728040667	-1.284703544540017e-07	7.498777898625185e-08	3.930642984877278e-07	1.058458950073882e-07	-3.819028059613439e-07	-2.222199995243407e-07	-4.154653220519061e-08
